<svg xmlns="http://www.w3.org/2000/svg" xmlns:xlink="http://www.w3.org/1999/xlink" width="220" zoomAndPan="magnify" viewBox="0 0 165 44.999999" height="60" preserveAspectRatio="xMidYMid meet" version="1.0"><defs><g/><clipPath id="a9c7308bcd"><path d="M 0 0.746094 L 45.542969 0.746094 L 45.542969 35.957031 L 0 35.957031 Z M 0 0.746094 " clip-rule="nonzero"/></clipPath><clipPath id="59d99dcc39"><path d="M 150 11 L 161.519531 11 L 161.519531 24 L 150 24 Z M 150 11 " clip-rule="nonzero"/></clipPath><clipPath id="b2960fdc58"><path d="M 74 25 L 161.519531 25 L 161.519531 36 L 74 36 Z M 74 25 " clip-rule="nonzero"/></clipPath><clipPath id="29c07ff910"><rect x="0" width="88" y="0" height="11"/></clipPath><clipPath id="ee80f8a20c"><rect x="0" width="162" y="0" height="37"/></clipPath></defs><g transform="matrix(1, 0, 0, 1, 0, 4)"><g clip-path="url(#ee80f8a20c)"><g clip-path="url(#a9c7308bcd)"><path fill="#000000" d="M 24.078125 0.8125 L 24.078125 32.59375 L 30.582031 32.59375 L 30.582031 25.023438 C 30.65625 22.246094 27.730469 22.484375 25.894531 23.398438 C 27.238281 20.785156 31.09375 20.527344 33.390625 21.828125 C 34.066406 22.214844 33.882812 21.324219 34.527344 21.109375 C 34.527344 21.109375 35.023438 21.03125 35.347656 21.136719 L 35.347656 23.398438 C 35.347656 23.398438 34.851562 23.515625 34.390625 23.273438 C 33.929688 23.039062 32.824219 23.054688 32.398438 23.539062 C 31.976562 24.023438 31.75 25.226562 31.785156 27.410156 C 31.804688 29.128906 31.792969 31.617188 31.785156 32.59375 L 38.214844 32.59375 L 38.214844 18.734375 L 45.417969 18.734375 Z M 24.769531 5.953125 L 26.390625 5.953125 L 26.390625 7.578125 L 24.769531 7.578125 Z M 24.769531 7.914062 L 26.390625 7.914062 L 26.390625 9.539062 L 24.769531 9.539062 Z M 22.65625 8.769531 L 7.398438 18.078125 L 7.4375 35.917969 L 35.136719 35.992188 L 35.097656 35.179688 L 8.285156 35.03125 L 8.226562 18.621094 L 21.859375 10.285156 L 21.886719 32.539062 L 22.800781 32.539062 Z M 4.847656 7.539062 L 4.769531 7.539062 L 3.890625 8.152344 L 3.890625 11.921875 L 0.496094 13.921875 L 0.398438 15.054688 L 3.890625 13.011719 L 3.890625 16.210938 L 0.105469 18.441406 L 0.0078125 19.574219 L 3.890625 17.296875 L 3.890625 36.023438 L 4.847656 36.023438 L 4.847656 16.738281 L 22.636719 6.308594 L 22.855469 5.03125 L 4.847656 15.644531 L 4.847656 12.449219 L 22.636719 2.019531 L 22.855469 0.746094 L 4.847656 11.355469 Z M 13.722656 20.433594 L 15.238281 20.433594 L 15.238281 21.949219 L 13.722656 21.949219 Z M 15.734375 20.433594 L 17.25 20.433594 L 17.25 21.949219 L 15.734375 21.949219 Z M 13.722656 22.28125 L 15.238281 22.28125 L 15.238281 23.792969 L 13.722656 23.792969 Z M 15.734375 22.28125 L 17.25 22.28125 L 17.25 23.792969 L 15.734375 23.792969 Z M 15.734375 22.28125 " fill-opacity="1" fill-rule="evenodd"/></g><g fill="#606c70" fill-opacity="1"><g transform="translate(49.373439, 23.284529)"><g><path d="M 5.75 -11.640625 C 6.8125 -11.640625 7.75 -11.472656 8.5625 -11.140625 C 9.382812 -10.816406 10.097656 -10.332031 10.703125 -9.6875 L 9.265625 -7.765625 C 8.765625 -8.285156 8.226562 -8.675781 7.65625 -8.9375 C 7.082031 -9.195312 6.429688 -9.328125 5.703125 -9.328125 C 5.273438 -9.328125 4.925781 -9.28125 4.65625 -9.1875 C 4.382812 -9.09375 4.191406 -8.960938 4.078125 -8.796875 C 3.960938 -8.640625 3.90625 -8.457031 3.90625 -8.25 C 3.90625 -8.007812 4.019531 -7.804688 4.25 -7.640625 C 4.476562 -7.472656 4.84375 -7.328125 5.34375 -7.203125 L 7.28125 -6.78125 C 8.425781 -6.507812 9.265625 -6.117188 9.796875 -5.609375 C 10.328125 -5.097656 10.59375 -4.421875 10.59375 -3.578125 C 10.59375 -2.765625 10.382812 -2.078125 9.96875 -1.515625 C 9.550781 -0.953125 8.976562 -0.53125 8.25 -0.25 C 7.519531 0.03125 6.6875 0.171875 5.75 0.171875 C 4.988281 0.171875 4.257812 0.0859375 3.5625 -0.078125 C 2.863281 -0.242188 2.234375 -0.484375 1.671875 -0.796875 C 1.117188 -1.109375 0.65625 -1.46875 0.28125 -1.875 L 1.71875 -3.875 C 2.007812 -3.539062 2.363281 -3.242188 2.78125 -2.984375 C 3.207031 -2.722656 3.671875 -2.515625 4.171875 -2.359375 C 4.679688 -2.210938 5.195312 -2.140625 5.71875 -2.140625 C 6.125 -2.140625 6.460938 -2.175781 6.734375 -2.25 C 7.003906 -2.332031 7.203125 -2.453125 7.328125 -2.609375 C 7.453125 -2.773438 7.515625 -2.972656 7.515625 -3.203125 C 7.515625 -3.441406 7.425781 -3.644531 7.25 -3.8125 C 7.082031 -3.976562 6.753906 -4.117188 6.265625 -4.234375 L 4.15625 -4.703125 C 3.5 -4.859375 2.921875 -5.0625 2.421875 -5.3125 C 1.921875 -5.5625 1.523438 -5.894531 1.234375 -6.3125 C 0.941406 -6.738281 0.796875 -7.269531 0.796875 -7.90625 C 0.796875 -8.625 0.992188 -9.265625 1.390625 -9.828125 C 1.785156 -10.390625 2.351562 -10.832031 3.09375 -11.15625 C 3.832031 -11.476562 4.71875 -11.640625 5.75 -11.640625 Z M 5.75 -11.640625 "/></g></g></g><g fill="#606c70" fill-opacity="1"><g transform="translate(59.188107, 23.284529)"><g><path d="M 4.25 -11.46875 L 4.25 0 L 1.265625 0 L 1.265625 -11.46875 Z M 4.25 -11.46875 "/></g></g></g><g fill="#606c70" fill-opacity="1"><g transform="translate(63.32213, 23.284529)"><g><path d="M 7.765625 -5.859375 L 7.765625 -3.4375 L 1.40625 -3.4375 L 1.40625 -5.859375 Z M 7.765625 -5.859375 "/></g></g></g><g fill="#606c70" fill-opacity="1"><g transform="translate(71.104274, 23.284529)"><g><path d="M 6.015625 0.171875 C 4.992188 0.171875 4.085938 -0.0507812 3.296875 -0.5 C 2.503906 -0.957031 1.882812 -1.625 1.4375 -2.5 C 1 -3.382812 0.78125 -4.457031 0.78125 -5.71875 C 0.78125 -6.957031 1.007812 -8.015625 1.46875 -8.890625 C 1.9375 -9.773438 2.601562 -10.453125 3.46875 -10.921875 C 4.332031 -11.398438 5.347656 -11.640625 6.515625 -11.640625 C 7.816406 -11.640625 8.863281 -11.40625 9.65625 -10.9375 C 10.457031 -10.46875 11.078125 -9.722656 11.515625 -8.703125 L 8.75 -7.609375 C 8.601562 -8.203125 8.335938 -8.628906 7.953125 -8.890625 C 7.578125 -9.160156 7.101562 -9.296875 6.53125 -9.296875 C 5.96875 -9.296875 5.484375 -9.160156 5.078125 -8.890625 C 4.671875 -8.617188 4.363281 -8.21875 4.15625 -7.6875 C 3.945312 -7.15625 3.84375 -6.503906 3.84375 -5.734375 C 3.84375 -4.921875 3.945312 -4.242188 4.15625 -3.703125 C 4.375 -3.160156 4.691406 -2.757812 5.109375 -2.5 C 5.535156 -2.238281 6.0625 -2.109375 6.6875 -2.109375 C 7.019531 -2.109375 7.328125 -2.144531 7.609375 -2.21875 C 7.890625 -2.300781 8.132812 -2.421875 8.34375 -2.578125 C 8.550781 -2.734375 8.710938 -2.929688 8.828125 -3.171875 C 8.941406 -3.410156 9 -3.691406 9 -4.015625 L 9 -4.1875 L 6.375 -4.1875 L 6.375 -6.1875 L 11.53125 -6.1875 L 11.53125 0 L 9.5 0 L 9.28125 -2.6875 L 9.765625 -2.28125 C 9.523438 -1.488281 9.085938 -0.878906 8.453125 -0.453125 C 7.816406 -0.0351562 7.003906 0.171875 6.015625 0.171875 Z M 6.015625 0.171875 "/></g></g></g><g fill="#606c70" fill-opacity="1"><g transform="translate(82.273957, 23.284529)"><g><path d="M 6.40625 -11.640625 C 7.570312 -11.640625 8.570312 -11.40625 9.40625 -10.9375 C 10.25 -10.46875 10.894531 -9.789062 11.34375 -8.90625 C 11.800781 -8.03125 12.03125 -6.972656 12.03125 -5.734375 C 12.03125 -4.492188 11.800781 -3.429688 11.34375 -2.546875 C 10.894531 -1.671875 10.25 -1 9.40625 -0.53125 C 8.570312 -0.0625 7.570312 0.171875 6.40625 0.171875 C 5.25 0.171875 4.25 -0.0625 3.40625 -0.53125 C 2.5625 -1 1.910156 -1.671875 1.453125 -2.546875 C 1.003906 -3.429688 0.78125 -4.492188 0.78125 -5.734375 C 0.78125 -6.972656 1.003906 -8.03125 1.453125 -8.90625 C 1.910156 -9.789062 2.5625 -10.46875 3.40625 -10.9375 C 4.25 -11.40625 5.25 -11.640625 6.40625 -11.640625 Z M 6.40625 -9.296875 C 5.851562 -9.296875 5.382812 -9.160156 5 -8.890625 C 4.625 -8.628906 4.335938 -8.234375 4.140625 -7.703125 C 3.941406 -7.179688 3.84375 -6.523438 3.84375 -5.734375 C 3.84375 -4.953125 3.941406 -4.296875 4.140625 -3.765625 C 4.335938 -3.234375 4.625 -2.832031 5 -2.5625 C 5.382812 -2.300781 5.851562 -2.171875 6.40625 -2.171875 C 6.96875 -2.171875 7.4375 -2.300781 7.8125 -2.5625 C 8.1875 -2.832031 8.472656 -3.234375 8.671875 -3.765625 C 8.867188 -4.296875 8.96875 -4.953125 8.96875 -5.734375 C 8.96875 -6.523438 8.867188 -7.179688 8.671875 -7.703125 C 8.472656 -8.234375 8.1875 -8.628906 7.8125 -8.890625 C 7.4375 -9.160156 6.96875 -9.296875 6.40625 -9.296875 Z M 6.40625 -9.296875 "/></g></g></g><g fill="#606c70" fill-opacity="1"><g transform="translate(93.686849, 23.284529)"><g><path d="M 11.609375 -11.46875 L 11.609375 0 L 8.28125 0 L 4.71875 -6.203125 L 3.859375 -7.90625 L 3.84375 -7.90625 L 3.90625 -5.78125 L 3.90625 0 L 1.265625 0 L 1.265625 -11.46875 L 4.59375 -11.46875 L 8.15625 -5.265625 L 9.015625 -3.5625 L 9.03125 -3.5625 L 8.96875 -5.6875 L 8.96875 -11.46875 Z M 11.609375 -11.46875 "/></g></g></g><g fill="#606c70" fill-opacity="1"><g transform="translate(105.169228, 23.284529)"><g><path d="M 6.015625 0.171875 C 4.992188 0.171875 4.085938 -0.0507812 3.296875 -0.5 C 2.503906 -0.957031 1.882812 -1.625 1.4375 -2.5 C 1 -3.382812 0.78125 -4.457031 0.78125 -5.71875 C 0.78125 -6.957031 1.007812 -8.015625 1.46875 -8.890625 C 1.9375 -9.773438 2.601562 -10.453125 3.46875 -10.921875 C 4.332031 -11.398438 5.347656 -11.640625 6.515625 -11.640625 C 7.816406 -11.640625 8.863281 -11.40625 9.65625 -10.9375 C 10.457031 -10.46875 11.078125 -9.722656 11.515625 -8.703125 L 8.75 -7.609375 C 8.601562 -8.203125 8.335938 -8.628906 7.953125 -8.890625 C 7.578125 -9.160156 7.101562 -9.296875 6.53125 -9.296875 C 5.96875 -9.296875 5.484375 -9.160156 5.078125 -8.890625 C 4.671875 -8.617188 4.363281 -8.21875 4.15625 -7.6875 C 3.945312 -7.15625 3.84375 -6.503906 3.84375 -5.734375 C 3.84375 -4.921875 3.945312 -4.242188 4.15625 -3.703125 C 4.375 -3.160156 4.691406 -2.757812 5.109375 -2.5 C 5.535156 -2.238281 6.0625 -2.109375 6.6875 -2.109375 C 7.019531 -2.109375 7.328125 -2.144531 7.609375 -2.21875 C 7.890625 -2.300781 8.132812 -2.421875 8.34375 -2.578125 C 8.550781 -2.734375 8.710938 -2.929688 8.828125 -3.171875 C 8.941406 -3.410156 9 -3.691406 9 -4.015625 L 9 -4.1875 L 6.375 -4.1875 L 6.375 -6.1875 L 11.53125 -6.1875 L 11.53125 0 L 9.5 0 L 9.28125 -2.6875 L 9.765625 -2.28125 C 9.523438 -1.488281 9.085938 -0.878906 8.453125 -0.453125 C 7.816406 -0.0351562 7.003906 0.171875 6.015625 0.171875 Z M 6.015625 0.171875 "/></g></g></g><g fill="#000000" fill-opacity="1"><g transform="translate(116.34389, 23.284529)"><g/></g></g><g fill="#000000" fill-opacity="1"><g transform="translate(119.922008, 23.284529)"><g><path d="M 6.53125 -11.46875 C 7.46875 -11.46875 8.265625 -11.316406 8.921875 -11.015625 C 9.585938 -10.710938 10.09375 -10.273438 10.4375 -9.703125 C 10.789062 -9.140625 10.96875 -8.453125 10.96875 -7.640625 C 10.96875 -6.828125 10.789062 -6.132812 10.4375 -5.5625 C 10.09375 -5 9.585938 -4.566406 8.921875 -4.265625 C 8.265625 -3.972656 7.46875 -3.828125 6.53125 -3.828125 L 4.25 -3.828125 L 4.25 0 L 1.265625 0 L 1.265625 -11.46875 Z M 6.0625 -6.0625 C 6.6875 -6.0625 7.15625 -6.191406 7.46875 -6.453125 C 7.789062 -6.710938 7.953125 -7.109375 7.953125 -7.640625 C 7.953125 -8.171875 7.789062 -8.566406 7.46875 -8.828125 C 7.15625 -9.085938 6.6875 -9.21875 6.0625 -9.21875 L 4.25 -9.21875 L 4.25 -6.0625 Z M 6.0625 -6.0625 "/></g></g></g><g fill="#000000" fill-opacity="1"><g transform="translate(130.136229, 23.284529)"><g><path d="M 4.25 -2.3125 L 10.015625 -2.3125 L 10.015625 0 L 1.265625 0 L 1.265625 -11.46875 L 4.25 -11.46875 Z M 4.25 -2.3125 "/></g></g></g><g fill="#000000" fill-opacity="1"><g transform="translate(139.2039, 23.284529)"><g><path d="M 11.6875 0 L 8.625 0 L 7.8125 -2.59375 L 3.890625 -2.59375 L 3.078125 0 L 0.0625 0 L 4.09375 -11.46875 L 7.6875 -11.46875 Z M 4.453125 -4.625 L 7.265625 -4.625 L 5.859375 -9.265625 Z M 4.453125 -4.625 "/></g></g></g><g clip-path="url(#59d99dcc39)"><g fill="#000000" fill-opacity="1"><g transform="translate(149.574472, 23.284529)"><g><path d="M 11.609375 -11.46875 L 11.609375 0 L 8.28125 0 L 4.71875 -6.203125 L 3.859375 -7.90625 L 3.84375 -7.90625 L 3.90625 -5.78125 L 3.90625 0 L 1.265625 0 L 1.265625 -11.46875 L 4.59375 -11.46875 L 8.15625 -5.265625 L 9.015625 -3.5625 L 9.03125 -3.5625 L 8.96875 -5.6875 L 8.96875 -11.46875 Z M 11.609375 -11.46875 "/></g></g></g></g><g clip-path="url(#b2960fdc58)"><g transform="matrix(1, 0, 0, 1, 74, 25)"><g clip-path="url(#29c07ff910)"><g fill="#000000" fill-opacity="1"><g transform="translate(1.276131, 7.999723)"><g><path d="M 0.125 0 L 1.4375 -5.65625 L 3.859375 -5.65625 C 4.429688 -5.65625 4.890625 -5.507812 5.234375 -5.21875 C 5.578125 -4.9375 5.75 -4.546875 5.75 -4.046875 C 5.75 -3.628906 5.648438 -3.273438 5.453125 -2.984375 C 5.265625 -2.703125 5.007812 -2.484375 4.6875 -2.328125 C 4.363281 -2.171875 3.992188 -2.085938 3.578125 -2.078125 L 3.25 -2 L 1.90625 -2 L 2.140625 -3.046875 L 3.265625 -3.046875 C 3.484375 -3.046875 3.664062 -3.082031 3.8125 -3.15625 C 3.96875 -3.226562 4.085938 -3.332031 4.171875 -3.46875 C 4.253906 -3.601562 4.296875 -3.75 4.296875 -3.90625 C 4.296875 -4.125 4.21875 -4.28125 4.0625 -4.375 C 3.914062 -4.476562 3.726562 -4.53125 3.5 -4.53125 L 2.625 -4.53125 L 1.5625 0 Z M 3.78125 0 L 2.84375 -2.453125 L 4.1875 -2.65625 L 5.265625 0 Z M 3.78125 0 "/></g></g></g><g fill="#000000" fill-opacity="1"><g transform="translate(6.642704, 7.999723)"><g><path d="M 2.421875 0.078125 C 1.992188 0.078125 1.617188 0 1.296875 -0.15625 C 0.984375 -0.320312 0.738281 -0.550781 0.5625 -0.84375 C 0.382812 -1.132812 0.296875 -1.472656 0.296875 -1.859375 C 0.296875 -2.335938 0.390625 -2.765625 0.578125 -3.140625 C 0.773438 -3.515625 1.054688 -3.8125 1.421875 -4.03125 C 1.785156 -4.25 2.21875 -4.359375 2.71875 -4.359375 C 3.132812 -4.359375 3.488281 -4.28125 3.78125 -4.125 C 4.082031 -3.96875 4.304688 -3.742188 4.453125 -3.453125 C 4.609375 -3.171875 4.6875 -2.835938 4.6875 -2.453125 C 4.6875 -2.335938 4.679688 -2.21875 4.671875 -2.09375 C 4.660156 -1.976562 4.640625 -1.863281 4.609375 -1.75 L 1.234375 -1.75 L 1.234375 -2.546875 L 3.65625 -2.546875 L 3.25 -2.328125 C 3.269531 -2.398438 3.285156 -2.460938 3.296875 -2.515625 C 3.304688 -2.578125 3.3125 -2.632812 3.3125 -2.6875 C 3.3125 -2.832031 3.285156 -2.953125 3.234375 -3.046875 C 3.179688 -3.148438 3.109375 -3.222656 3.015625 -3.265625 C 2.921875 -3.316406 2.8125 -3.34375 2.6875 -3.34375 C 2.476562 -3.34375 2.304688 -3.296875 2.171875 -3.203125 C 2.046875 -3.109375 1.941406 -2.976562 1.859375 -2.8125 C 1.773438 -2.65625 1.71875 -2.484375 1.6875 -2.296875 C 1.65625 -2.117188 1.640625 -1.945312 1.640625 -1.78125 C 1.640625 -1.59375 1.675781 -1.4375 1.75 -1.3125 C 1.820312 -1.1875 1.914062 -1.09375 2.03125 -1.03125 C 2.15625 -0.96875 2.300781 -0.9375 2.46875 -0.9375 C 2.675781 -0.9375 2.84375 -0.984375 2.96875 -1.078125 C 3.09375 -1.171875 3.191406 -1.289062 3.265625 -1.4375 L 4.46875 -0.953125 C 4.363281 -0.742188 4.207031 -0.5625 4 -0.40625 C 3.800781 -0.25 3.566406 -0.128906 3.296875 -0.046875 C 3.023438 0.0351562 2.734375 0.078125 2.421875 0.078125 Z M 3.203125 -6.3125 L 4.609375 -6.3125 L 3.34375 -4.84375 L 2.265625 -4.84375 Z M 3.203125 -6.3125 "/></g></g></g><g fill="#000000" fill-opacity="1"><g transform="translate(11.196118, 7.999723)"><g><path d="M 0 0 L 1 -4.28125 L 2.28125 -4.28125 L 2.078125 -2.921875 L 2 -3.046875 C 2.113281 -3.472656 2.320312 -3.796875 2.625 -4.015625 C 2.925781 -4.242188 3.28125 -4.359375 3.6875 -4.359375 C 3.988281 -4.359375 4.242188 -4.289062 4.453125 -4.15625 C 4.660156 -4.03125 4.804688 -3.84375 4.890625 -3.59375 C 4.972656 -3.351562 4.972656 -3.054688 4.890625 -2.703125 L 4.265625 0 L 2.8125 0 L 3.40625 -2.53125 C 3.445312 -2.757812 3.421875 -2.9375 3.328125 -3.0625 C 3.242188 -3.1875 3.097656 -3.25 2.890625 -3.25 C 2.734375 -3.25 2.597656 -3.210938 2.484375 -3.140625 C 2.367188 -3.078125 2.269531 -2.972656 2.1875 -2.828125 C 2.101562 -2.691406 2.039062 -2.519531 2 -2.3125 L 1.453125 0 Z M 0 0 "/></g></g></g><g fill="#000000" fill-opacity="1"><g transform="translate(15.997759, 7.999723)"><g><path d="M 2.40625 0.078125 C 1.96875 0.078125 1.59375 -0.00390625 1.28125 -0.171875 C 0.96875 -0.335938 0.722656 -0.566406 0.546875 -0.859375 C 0.378906 -1.160156 0.296875 -1.492188 0.296875 -1.859375 C 0.296875 -2.316406 0.390625 -2.734375 0.578125 -3.109375 C 0.765625 -3.492188 1.039062 -3.796875 1.40625 -4.015625 C 1.769531 -4.242188 2.210938 -4.359375 2.734375 -4.359375 C 3.171875 -4.359375 3.546875 -4.273438 3.859375 -4.109375 C 4.171875 -3.941406 4.410156 -3.710938 4.578125 -3.421875 C 4.753906 -3.128906 4.84375 -2.796875 4.84375 -2.421875 C 4.84375 -1.960938 4.742188 -1.539062 4.546875 -1.15625 C 4.359375 -0.78125 4.082031 -0.476562 3.71875 -0.25 C 3.363281 -0.03125 2.925781 0.078125 2.40625 0.078125 Z M 2.421875 -0.9375 C 2.566406 -0.9375 2.703125 -0.984375 2.828125 -1.078125 C 2.953125 -1.171875 3.054688 -1.296875 3.140625 -1.453125 C 3.234375 -1.617188 3.300781 -1.796875 3.34375 -1.984375 C 3.394531 -2.171875 3.421875 -2.359375 3.421875 -2.546875 C 3.421875 -2.710938 3.390625 -2.851562 3.328125 -2.96875 C 3.273438 -3.082031 3.195312 -3.171875 3.09375 -3.234375 C 2.988281 -3.304688 2.859375 -3.34375 2.703125 -3.34375 C 2.554688 -3.34375 2.421875 -3.296875 2.296875 -3.203125 C 2.179688 -3.109375 2.078125 -2.976562 1.984375 -2.8125 C 1.898438 -2.65625 1.832031 -2.484375 1.78125 -2.296875 C 1.738281 -2.109375 1.71875 -1.921875 1.71875 -1.734375 C 1.71875 -1.578125 1.742188 -1.4375 1.796875 -1.3125 C 1.847656 -1.195312 1.925781 -1.101562 2.03125 -1.03125 C 2.144531 -0.96875 2.273438 -0.9375 2.421875 -0.9375 Z M 2.421875 -0.9375 "/></g></g></g><g fill="#000000" fill-opacity="1"><g transform="translate(20.705246, 7.999723)"><g><path d="M 3.609375 -4.28125 L 5.234375 -4.28125 L 2.734375 0 L 1 0 L 0.46875 -4.28125 L 1.90625 -4.28125 L 2.078125 -0.328125 L 1.796875 -0.375 Z M 3.609375 -4.28125 "/></g></g></g><g fill="#000000" fill-opacity="1"><g transform="translate(24.984757, 7.999723)"><g><path d="M 1.75 0.078125 C 1.46875 0.078125 1.210938 0.0078125 0.984375 -0.125 C 0.765625 -0.257812 0.585938 -0.453125 0.453125 -0.703125 C 0.328125 -0.960938 0.265625 -1.273438 0.265625 -1.640625 C 0.265625 -1.984375 0.3125 -2.316406 0.40625 -2.640625 C 0.507812 -2.972656 0.648438 -3.265625 0.828125 -3.515625 C 1.015625 -3.773438 1.238281 -3.976562 1.5 -4.125 C 1.757812 -4.28125 2.050781 -4.359375 2.375 -4.359375 C 2.5625 -4.359375 2.742188 -4.320312 2.921875 -4.25 C 3.097656 -4.1875 3.242188 -4.082031 3.359375 -3.9375 C 3.484375 -3.800781 3.570312 -3.613281 3.625 -3.375 L 3.828125 -4.28125 L 5.28125 -4.28125 L 4.296875 0 L 2.96875 0 L 3.109375 -0.8125 C 2.972656 -0.53125 2.785156 -0.3125 2.546875 -0.15625 C 2.304688 0 2.039062 0.078125 1.75 0.078125 Z M 2.390625 -0.984375 C 2.535156 -0.984375 2.664062 -1.03125 2.78125 -1.125 C 2.90625 -1.21875 3.007812 -1.335938 3.09375 -1.484375 C 3.1875 -1.640625 3.253906 -1.804688 3.296875 -1.984375 C 3.347656 -2.160156 3.375 -2.335938 3.375 -2.515625 C 3.375 -2.671875 3.347656 -2.804688 3.296875 -2.921875 C 3.242188 -3.046875 3.164062 -3.140625 3.0625 -3.203125 C 2.96875 -3.265625 2.851562 -3.296875 2.71875 -3.296875 C 2.550781 -3.296875 2.40625 -3.25 2.28125 -3.15625 C 2.15625 -3.0625 2.050781 -2.9375 1.96875 -2.78125 C 1.882812 -2.632812 1.816406 -2.472656 1.765625 -2.296875 C 1.722656 -2.128906 1.703125 -1.96875 1.703125 -1.8125 C 1.703125 -1.632812 1.726562 -1.484375 1.78125 -1.359375 C 1.832031 -1.242188 1.90625 -1.148438 2 -1.078125 C 2.101562 -1.015625 2.234375 -0.984375 2.390625 -0.984375 Z M 2.390625 -0.984375 "/></g></g></g><g fill="#000000" fill-opacity="1"><g transform="translate(29.846318, 7.999723)"><g><path d="M 2.1875 0.078125 C 1.832031 0.078125 1.53125 0.015625 1.28125 -0.109375 C 1.039062 -0.234375 0.875 -0.414062 0.78125 -0.65625 C 0.6875 -0.90625 0.675781 -1.207031 0.75 -1.5625 L 1.578125 -5.203125 L 3.140625 -5.609375 L 2.203125 -1.59375 C 2.148438 -1.375 2.175781 -1.207031 2.28125 -1.09375 C 2.394531 -0.988281 2.5625 -0.9375 2.78125 -0.9375 C 2.914062 -0.9375 3.023438 -0.945312 3.109375 -0.96875 C 3.191406 -0.988281 3.265625 -1.015625 3.328125 -1.046875 L 3.234375 -0.125 C 3.078125 -0.0507812 2.910156 0 2.734375 0.03125 C 2.554688 0.0625 2.375 0.078125 2.1875 0.078125 Z M 0.34375 -3.25 L 0.578125 -4.28125 L 4 -4.28125 L 3.765625 -3.25 Z M 0.34375 -3.25 "/></g></g></g><g fill="#000000" fill-opacity="1"><g transform="translate(33.150043, 7.999723)"><g><path d="M 1.921875 -4.78125 C 1.671875 -4.78125 1.472656 -4.832031 1.328125 -4.9375 C 1.191406 -5.039062 1.140625 -5.203125 1.171875 -5.421875 C 1.203125 -5.691406 1.289062 -5.882812 1.4375 -6 C 1.582031 -6.113281 1.789062 -6.171875 2.0625 -6.171875 C 2.320312 -6.171875 2.519531 -6.113281 2.65625 -6 C 2.800781 -5.894531 2.859375 -5.738281 2.828125 -5.53125 C 2.796875 -5.25 2.703125 -5.050781 2.546875 -4.9375 C 2.398438 -4.832031 2.191406 -4.78125 1.921875 -4.78125 Z M 2.453125 -4.28125 L 1.46875 0 L 0.015625 0 L 1 -4.28125 Z M 2.453125 -4.28125 "/></g></g></g><g fill="#000000" fill-opacity="1"><g transform="translate(35.186958, 7.999723)"><g><path d="M 2.40625 0.078125 C 1.96875 0.078125 1.59375 -0.00390625 1.28125 -0.171875 C 0.96875 -0.335938 0.722656 -0.566406 0.546875 -0.859375 C 0.378906 -1.160156 0.296875 -1.492188 0.296875 -1.859375 C 0.296875 -2.316406 0.390625 -2.734375 0.578125 -3.109375 C 0.765625 -3.492188 1.039062 -3.796875 1.40625 -4.015625 C 1.769531 -4.242188 2.210938 -4.359375 2.734375 -4.359375 C 3.171875 -4.359375 3.546875 -4.273438 3.859375 -4.109375 C 4.171875 -3.941406 4.410156 -3.710938 4.578125 -3.421875 C 4.753906 -3.128906 4.84375 -2.796875 4.84375 -2.421875 C 4.84375 -1.960938 4.742188 -1.539062 4.546875 -1.15625 C 4.359375 -0.78125 4.082031 -0.476562 3.71875 -0.25 C 3.363281 -0.03125 2.925781 0.078125 2.40625 0.078125 Z M 2.421875 -0.9375 C 2.566406 -0.9375 2.703125 -0.984375 2.828125 -1.078125 C 2.953125 -1.171875 3.054688 -1.296875 3.140625 -1.453125 C 3.234375 -1.617188 3.300781 -1.796875 3.34375 -1.984375 C 3.394531 -2.171875 3.421875 -2.359375 3.421875 -2.546875 C 3.421875 -2.710938 3.390625 -2.851562 3.328125 -2.96875 C 3.273438 -3.082031 3.195312 -3.171875 3.09375 -3.234375 C 2.988281 -3.304688 2.859375 -3.34375 2.703125 -3.34375 C 2.554688 -3.34375 2.421875 -3.296875 2.296875 -3.203125 C 2.179688 -3.109375 2.078125 -2.976562 1.984375 -2.8125 C 1.898438 -2.65625 1.832031 -2.484375 1.78125 -2.296875 C 1.738281 -2.109375 1.71875 -1.921875 1.71875 -1.734375 C 1.71875 -1.578125 1.742188 -1.4375 1.796875 -1.3125 C 1.847656 -1.195312 1.925781 -1.101562 2.03125 -1.03125 C 2.144531 -0.96875 2.273438 -0.9375 2.421875 -0.9375 Z M 2.421875 -0.9375 "/></g></g></g><g fill="#000000" fill-opacity="1"><g transform="translate(39.894445, 7.999723)"><g><path d="M 0 0 L 1 -4.28125 L 2.28125 -4.28125 L 2.078125 -2.921875 L 2 -3.046875 C 2.113281 -3.472656 2.320312 -3.796875 2.625 -4.015625 C 2.925781 -4.242188 3.28125 -4.359375 3.6875 -4.359375 C 3.988281 -4.359375 4.242188 -4.289062 4.453125 -4.15625 C 4.660156 -4.03125 4.804688 -3.84375 4.890625 -3.59375 C 4.972656 -3.351562 4.972656 -3.054688 4.890625 -2.703125 L 4.265625 0 L 2.8125 0 L 3.40625 -2.53125 C 3.445312 -2.757812 3.421875 -2.9375 3.328125 -3.0625 C 3.242188 -3.1875 3.097656 -3.25 2.890625 -3.25 C 2.734375 -3.25 2.597656 -3.210938 2.484375 -3.140625 C 2.367188 -3.078125 2.269531 -2.972656 2.1875 -2.828125 C 2.101562 -2.691406 2.039062 -2.519531 2 -2.3125 L 1.453125 0 Z M 0 0 "/></g></g></g><g fill="#000000" fill-opacity="1"><g transform="translate(46.703083, 7.999723)"><g><path d="M 2.015625 -6.109375 L 2.015625 1.4375 L 0.734375 1.4375 L 0.734375 -6.109375 Z M 2.015625 -6.109375 "/></g></g></g><g fill="#000000" fill-opacity="1"><g transform="translate(51.0177, 7.999723)"><g><path d="M 0.125 0 L 1.4375 -5.65625 L 3.28125 -5.65625 L 3.5625 -2.90625 L 3.640625 -1.515625 L 4.328125 -2.90625 L 5.828125 -5.65625 L 7.9375 -5.65625 L 6.625 0 L 5.328125 0 L 5.921875 -2.59375 L 6.328125 -4.265625 L 6.3125 -4.265625 L 3.9375 0 L 2.8125 0 L 2.34375 -4.234375 L 2.328125 -4.234375 L 2.015625 -2.59375 L 1.421875 0 Z M 0.125 0 "/></g></g></g><g fill="#000000" fill-opacity="1"><g transform="translate(58.327287, 7.999723)"><g><path d="M 2.40625 0.078125 C 1.96875 0.078125 1.59375 -0.00390625 1.28125 -0.171875 C 0.96875 -0.335938 0.722656 -0.566406 0.546875 -0.859375 C 0.378906 -1.160156 0.296875 -1.492188 0.296875 -1.859375 C 0.296875 -2.316406 0.390625 -2.734375 0.578125 -3.109375 C 0.765625 -3.492188 1.039062 -3.796875 1.40625 -4.015625 C 1.769531 -4.242188 2.210938 -4.359375 2.734375 -4.359375 C 3.171875 -4.359375 3.546875 -4.273438 3.859375 -4.109375 C 4.171875 -3.941406 4.410156 -3.710938 4.578125 -3.421875 C 4.753906 -3.128906 4.84375 -2.796875 4.84375 -2.421875 C 4.84375 -1.960938 4.742188 -1.539062 4.546875 -1.15625 C 4.359375 -0.78125 4.082031 -0.476562 3.71875 -0.25 C 3.363281 -0.03125 2.925781 0.078125 2.40625 0.078125 Z M 2.421875 -0.9375 C 2.566406 -0.9375 2.703125 -0.984375 2.828125 -1.078125 C 2.953125 -1.171875 3.054688 -1.296875 3.140625 -1.453125 C 3.234375 -1.617188 3.300781 -1.796875 3.34375 -1.984375 C 3.394531 -2.171875 3.421875 -2.359375 3.421875 -2.546875 C 3.421875 -2.710938 3.390625 -2.851562 3.328125 -2.96875 C 3.273438 -3.082031 3.195312 -3.171875 3.09375 -3.234375 C 2.988281 -3.304688 2.859375 -3.34375 2.703125 -3.34375 C 2.554688 -3.34375 2.421875 -3.296875 2.296875 -3.203125 C 2.179688 -3.109375 2.078125 -2.976562 1.984375 -2.8125 C 1.898438 -2.65625 1.832031 -2.484375 1.78125 -2.296875 C 1.738281 -2.109375 1.71875 -1.921875 1.71875 -1.734375 C 1.71875 -1.578125 1.742188 -1.4375 1.796875 -1.3125 C 1.847656 -1.195312 1.925781 -1.101562 2.03125 -1.03125 C 2.144531 -0.96875 2.273438 -0.9375 2.421875 -0.9375 Z M 2.421875 -0.9375 "/></g></g></g><g fill="#000000" fill-opacity="1"><g transform="translate(63.034774, 7.999723)"><g><path d="M 0 0 L 1 -4.28125 L 2.28125 -4.28125 L 2.078125 -2.921875 L 2 -3.046875 C 2.113281 -3.472656 2.320312 -3.796875 2.625 -4.015625 C 2.925781 -4.242188 3.28125 -4.359375 3.6875 -4.359375 C 3.988281 -4.359375 4.242188 -4.289062 4.453125 -4.15625 C 4.660156 -4.03125 4.804688 -3.84375 4.890625 -3.59375 C 4.972656 -3.351562 4.972656 -3.054688 4.890625 -2.703125 L 4.265625 0 L 2.8125 0 L 3.40625 -2.53125 C 3.445312 -2.757812 3.421875 -2.9375 3.328125 -3.0625 C 3.242188 -3.1875 3.097656 -3.25 2.890625 -3.25 C 2.734375 -3.25 2.597656 -3.210938 2.484375 -3.140625 C 2.367188 -3.078125 2.269531 -2.972656 2.1875 -2.828125 C 2.101562 -2.691406 2.039062 -2.519531 2 -2.3125 L 1.453125 0 Z M 0 0 "/></g></g></g><g fill="#000000" fill-opacity="1"><g transform="translate(67.836414, 7.999723)"><g><path d="M 2.1875 0.078125 C 1.832031 0.078125 1.53125 0.015625 1.28125 -0.109375 C 1.039062 -0.234375 0.875 -0.414062 0.78125 -0.65625 C 0.6875 -0.90625 0.675781 -1.207031 0.75 -1.5625 L 1.578125 -5.203125 L 3.140625 -5.609375 L 2.203125 -1.59375 C 2.148438 -1.375 2.175781 -1.207031 2.28125 -1.09375 C 2.394531 -0.988281 2.5625 -0.9375 2.78125 -0.9375 C 2.914062 -0.9375 3.023438 -0.945312 3.109375 -0.96875 C 3.191406 -0.988281 3.265625 -1.015625 3.328125 -1.046875 L 3.234375 -0.125 C 3.078125 -0.0507812 2.910156 0 2.734375 0.03125 C 2.554688 0.0625 2.375 0.078125 2.1875 0.078125 Z M 0.34375 -3.25 L 0.578125 -4.28125 L 4 -4.28125 L 3.765625 -3.25 Z M 0.34375 -3.25 "/></g></g></g><g fill="#000000" fill-opacity="1"><g transform="translate(71.14014, 7.999723)"><g><path d="M 0 0 L 1 -4.28125 L 2.28125 -4.28125 L 2.015625 -2.71875 L 1.953125 -2.875 C 2.046875 -3.175781 2.164062 -3.4375 2.3125 -3.65625 C 2.46875 -3.875 2.648438 -4.046875 2.859375 -4.171875 C 3.078125 -4.296875 3.328125 -4.359375 3.609375 -4.359375 C 3.703125 -4.359375 3.78125 -4.351562 3.84375 -4.34375 C 3.914062 -4.332031 3.972656 -4.316406 4.015625 -4.296875 L 3.671875 -3.0625 C 3.609375 -3.09375 3.535156 -3.113281 3.453125 -3.125 C 3.378906 -3.144531 3.285156 -3.15625 3.171875 -3.15625 C 2.992188 -3.15625 2.816406 -3.113281 2.640625 -3.03125 C 2.472656 -2.957031 2.328125 -2.832031 2.203125 -2.65625 C 2.078125 -2.488281 1.984375 -2.265625 1.921875 -1.984375 L 1.453125 0 Z M 0 0 "/></g></g></g><g fill="#000000" fill-opacity="1"><g transform="translate(74.33259, 7.999723)"><g><path d="M 2.421875 0.078125 C 1.992188 0.078125 1.617188 0 1.296875 -0.15625 C 0.984375 -0.320312 0.738281 -0.550781 0.5625 -0.84375 C 0.382812 -1.132812 0.296875 -1.472656 0.296875 -1.859375 C 0.296875 -2.335938 0.390625 -2.765625 0.578125 -3.140625 C 0.773438 -3.515625 1.054688 -3.8125 1.421875 -4.03125 C 1.785156 -4.25 2.21875 -4.359375 2.71875 -4.359375 C 3.132812 -4.359375 3.488281 -4.28125 3.78125 -4.125 C 4.082031 -3.96875 4.304688 -3.742188 4.453125 -3.453125 C 4.609375 -3.171875 4.6875 -2.835938 4.6875 -2.453125 C 4.6875 -2.335938 4.679688 -2.21875 4.671875 -2.09375 C 4.660156 -1.976562 4.640625 -1.863281 4.609375 -1.75 L 1.234375 -1.75 L 1.234375 -2.546875 L 3.65625 -2.546875 L 3.25 -2.328125 C 3.269531 -2.398438 3.285156 -2.460938 3.296875 -2.515625 C 3.304688 -2.578125 3.3125 -2.632812 3.3125 -2.6875 C 3.3125 -2.832031 3.285156 -2.953125 3.234375 -3.046875 C 3.179688 -3.148438 3.109375 -3.222656 3.015625 -3.265625 C 2.921875 -3.316406 2.8125 -3.34375 2.6875 -3.34375 C 2.476562 -3.34375 2.304688 -3.296875 2.171875 -3.203125 C 2.046875 -3.109375 1.941406 -2.976562 1.859375 -2.8125 C 1.773438 -2.65625 1.71875 -2.484375 1.6875 -2.296875 C 1.65625 -2.117188 1.640625 -1.945312 1.640625 -1.78125 C 1.640625 -1.59375 1.675781 -1.4375 1.75 -1.3125 C 1.820312 -1.1875 1.914062 -1.09375 2.03125 -1.03125 C 2.15625 -0.96875 2.300781 -0.9375 2.46875 -0.9375 C 2.675781 -0.9375 2.84375 -0.984375 2.96875 -1.078125 C 3.09375 -1.171875 3.191406 -1.289062 3.265625 -1.4375 L 4.46875 -0.953125 C 4.363281 -0.742188 4.207031 -0.5625 4 -0.40625 C 3.800781 -0.25 3.566406 -0.128906 3.296875 -0.046875 C 3.023438 0.0351562 2.734375 0.078125 2.421875 0.078125 Z M 3.203125 -6.3125 L 4.609375 -6.3125 L 3.34375 -4.84375 L 2.265625 -4.84375 Z M 3.203125 -6.3125 "/></g></g></g><g fill="#000000" fill-opacity="1"><g transform="translate(78.886003, 7.999723)"><g><path d="M 1.75 0.078125 C 1.46875 0.078125 1.210938 0.0078125 0.984375 -0.125 C 0.765625 -0.257812 0.585938 -0.453125 0.453125 -0.703125 C 0.328125 -0.960938 0.265625 -1.273438 0.265625 -1.640625 C 0.265625 -1.984375 0.3125 -2.316406 0.40625 -2.640625 C 0.507812 -2.972656 0.648438 -3.265625 0.828125 -3.515625 C 1.015625 -3.773438 1.238281 -3.976562 1.5 -4.125 C 1.757812 -4.28125 2.050781 -4.359375 2.375 -4.359375 C 2.5625 -4.359375 2.742188 -4.320312 2.921875 -4.25 C 3.097656 -4.1875 3.242188 -4.082031 3.359375 -3.9375 C 3.484375 -3.800781 3.570312 -3.613281 3.625 -3.375 L 3.828125 -4.28125 L 5.28125 -4.28125 L 4.296875 0 L 2.96875 0 L 3.109375 -0.8125 C 2.972656 -0.53125 2.785156 -0.3125 2.546875 -0.15625 C 2.304688 0 2.039062 0.078125 1.75 0.078125 Z M 2.390625 -0.984375 C 2.535156 -0.984375 2.664062 -1.03125 2.78125 -1.125 C 2.90625 -1.21875 3.007812 -1.335938 3.09375 -1.484375 C 3.1875 -1.640625 3.253906 -1.804688 3.296875 -1.984375 C 3.347656 -2.160156 3.375 -2.335938 3.375 -2.515625 C 3.375 -2.671875 3.347656 -2.804688 3.296875 -2.921875 C 3.242188 -3.046875 3.164062 -3.140625 3.0625 -3.203125 C 2.96875 -3.265625 2.851562 -3.296875 2.71875 -3.296875 C 2.550781 -3.296875 2.40625 -3.25 2.28125 -3.15625 C 2.15625 -3.0625 2.050781 -2.9375 1.96875 -2.78125 C 1.882812 -2.632812 1.816406 -2.472656 1.765625 -2.296875 C 1.722656 -2.128906 1.703125 -1.96875 1.703125 -1.8125 C 1.703125 -1.632812 1.726562 -1.484375 1.78125 -1.359375 C 1.832031 -1.242188 1.90625 -1.148438 2 -1.078125 C 2.101562 -1.015625 2.234375 -0.984375 2.390625 -0.984375 Z M 2.390625 -0.984375 "/></g></g></g><g fill="#000000" fill-opacity="1"><g transform="translate(83.747564, 7.999723)"><g><path d="M 1.5625 0.078125 C 1.039062 0.078125 0.675781 -0.0625 0.46875 -0.34375 C 0.257812 -0.625 0.210938 -1.003906 0.328125 -1.484375 L 1.40625 -6.09375 L 2.859375 -6.09375 L 1.796875 -1.5 C 1.742188 -1.3125 1.75 -1.171875 1.8125 -1.078125 C 1.882812 -0.984375 2.015625 -0.9375 2.203125 -0.9375 C 2.265625 -0.9375 2.320312 -0.9375 2.375 -0.9375 C 2.425781 -0.945312 2.472656 -0.957031 2.515625 -0.96875 L 2.25 -0.03125 C 2.15625 0.0078125 2.054688 0.0351562 1.953125 0.046875 C 1.847656 0.0664062 1.71875 0.078125 1.5625 0.078125 Z M 1.5625 0.078125 "/></g></g></g></g></g></g><path stroke-linecap="butt" transform="matrix(0.382722, 0, 0, 0.382722, 49.373439, 29.825554)" fill="none" stroke-linejoin="miter" d="M 0.00407742 1.996981 L 56.088699 1.996981 " stroke="#000000" stroke-width="4" stroke-opacity="1" stroke-miterlimit="4"/></g></g></svg>